<svg width="6" height="10" viewBox="0 0 6 10" fill="none" xmlns="http://www.w3.org/2000/svg">
<path d="M1.50568 4.809C0.743009 4.42767 0.361676 3.82633 0.361676 3.005C0.361676 2.609 0.460676 2.246 0.658676 1.916C0.856676 1.586 1.15368 1.32567 1.54968 1.135C1.94568 0.937 2.42968 0.838 3.00168 0.838C3.56634 0.838 4.04668 0.937 4.44268 1.135C4.84601 1.32567 5.14668 1.586 5.34468 1.916C5.54268 2.246 5.64168 2.609 5.64168 3.005C5.64168 3.41567 5.53534 3.77867 5.32268 4.094C5.11734 4.402 4.84234 4.64033 4.49768 4.809C4.91568 4.963 5.24568 5.216 5.48768 5.568C5.72968 5.91267 5.85068 6.31967 5.85068 6.789C5.85068 7.26567 5.72968 7.68733 5.48768 8.054C5.24568 8.42067 4.90834 8.703 4.47568 8.901C4.04301 9.099 3.55168 9.198 3.00168 9.198C2.45168 9.198 1.96034 9.099 1.52768 8.901C1.10234 8.703 0.768676 8.42067 0.526676 8.054C0.284676 7.68733 0.163676 7.26567 0.163676 6.789C0.163676 6.31233 0.284676 5.90167 0.526676 5.557C0.768676 5.21233 1.09501 4.963 1.50568 4.809ZM4.44268 3.159C4.44268 2.74833 4.31434 2.433 4.05768 2.213C3.80101 1.993 3.44901 1.883 3.00168 1.883C2.56168 1.883 2.21334 1.993 1.95668 2.213C1.70001 2.433 1.57168 2.752 1.57168 3.17C1.57168 3.53667 1.70368 3.83733 1.96768 4.072C2.23901 4.29933 2.58368 4.413 3.00168 4.413C3.41968 4.413 3.76434 4.29567 4.03568 4.061C4.30701 3.82633 4.44268 3.52567 4.44268 3.159ZM3.00168 5.359C2.51768 5.359 2.12168 5.48 1.81368 5.722C1.51301 5.95667 1.36268 6.29767 1.36268 6.745C1.36268 7.163 1.50934 7.504 1.80268 7.768C2.09601 8.02467 2.49568 8.153 3.00168 8.153C3.50034 8.153 3.89268 8.021 4.17868 7.757C4.47201 7.493 4.61868 7.15567 4.61868 6.745C4.61868 6.305 4.46834 5.964 4.16768 5.722C3.87434 5.48 3.48568 5.359 3.00168 5.359Z" fill="black"/>
</svg>
