<svg width="6" height="9" viewBox="0 0 6 9" fill="none" xmlns="http://www.w3.org/2000/svg">
<path d="M4.44319 2.84C4.36252 2.50267 4.21586 2.24967 4.00319 2.081C3.79052 1.91233 3.49352 1.828 3.11219 1.828C2.53286 1.828 2.10019 2.05167 1.81419 2.499C1.52819 2.939 1.37786 3.67233 1.36319 4.699C1.55386 4.37633 1.83252 4.127 2.19919 3.951C2.56586 3.775 2.96186 3.687 3.38719 3.687C3.87119 3.687 4.29653 3.79333 4.66319 4.006C5.03719 4.21133 5.32686 4.512 5.53219 4.908C5.74486 5.304 5.85119 5.777 5.85119 6.327C5.85119 6.84033 5.74853 7.29867 5.54319 7.702C5.34519 8.10533 5.04819 8.42433 4.65219 8.659C4.25619 8.88633 3.77953 9 3.22219 9C2.46686 9 1.87286 8.835 1.44019 8.505C1.01486 8.16767 0.714191 7.69467 0.538191 7.086C0.369525 6.47733 0.285191 5.71833 0.285191 4.809C0.285191 2.125 1.23119 0.783 3.12319 0.783C3.85652 0.783 4.43219 0.981 4.85019 1.377C5.27553 1.773 5.52486 2.26067 5.59819 2.84H4.44319ZM3.11219 4.743C2.66486 4.743 2.28352 4.87867 1.96819 5.15C1.66019 5.414 1.50619 5.799 1.50619 6.305C1.50619 6.811 1.64919 7.21433 1.93519 7.515C2.22852 7.80833 2.63552 7.955 3.15619 7.955C3.61819 7.955 3.98119 7.812 4.24519 7.526C4.51652 7.24 4.65219 6.85867 4.65219 6.382C4.65219 5.88333 4.52019 5.48733 4.25619 5.194C3.99952 4.89333 3.61819 4.743 3.11219 4.743Z" fill="black"/>
</svg>
