<svg width="6" height="9" viewBox="0 0 6 9" fill="none" xmlns="http://www.w3.org/2000/svg">
<path d="M0.136563 4.886C0.136563 3.61733 0.349229 2.62733 0.774563 1.916C1.20723 1.19733 1.9479 0.838 2.99656 0.838C4.04523 0.838 4.78223 1.19733 5.20756 1.916C5.64023 2.62733 5.85656 3.61733 5.85656 4.886C5.85656 6.16933 5.64023 7.174 5.20756 7.9C4.78223 8.61867 4.04523 8.978 2.99656 8.978C1.9479 8.978 1.20723 8.61867 0.774563 7.9C0.349229 7.174 0.136563 6.16933 0.136563 4.886ZM4.62456 4.886C4.62456 4.292 4.58423 3.78967 4.50356 3.379C4.43023 2.96833 4.27623 2.63467 4.04156 2.378C3.8069 2.114 3.45856 1.982 2.99656 1.982C2.53456 1.982 2.18623 2.114 1.95156 2.378C1.7169 2.63467 1.55923 2.96833 1.47856 3.379C1.40523 3.78967 1.36856 4.292 1.36856 4.886C1.36856 5.502 1.40523 6.019 1.47856 6.437C1.5519 6.855 1.7059 7.19233 1.94056 7.449C2.18256 7.70567 2.53456 7.834 2.99656 7.834C3.45856 7.834 3.8069 7.70567 4.04156 7.449C4.28356 7.19233 4.44123 6.855 4.51456 6.437C4.5879 6.019 4.62456 5.502 4.62456 4.886Z" fill="black"/>
</svg>
