<svg width="7" height="9" viewBox="0 0 7 9" fill="none" xmlns="http://www.w3.org/2000/svg">
<path d="M2.23079 6.822C2.30412 7.18867 2.46179 7.46733 2.70379 7.658C2.94579 7.84867 3.27212 7.944 3.68279 7.944C4.20346 7.944 4.58479 7.73867 4.82679 7.328C5.06879 6.91733 5.18979 6.217 5.18979 5.227C5.01379 5.47633 4.76446 5.67067 4.44179 5.81C4.12646 5.942 3.78179 6.008 3.40779 6.008C2.93112 6.008 2.49846 5.91267 2.10979 5.722C1.72112 5.524 1.41312 5.23433 1.18579 4.853C0.965789 4.46433 0.855789 3.995 0.855789 3.445C0.855789 2.63833 1.09046 1.99667 1.55979 1.52C2.03646 1.036 2.68912 0.793999 3.51779 0.793999C4.51512 0.793999 5.22279 1.12767 5.64079 1.795C6.06612 2.455 6.27879 3.47067 6.27879 4.842C6.27879 5.788 6.19812 6.56167 6.03679 7.163C5.88279 7.76433 5.61146 8.219 5.22279 8.527C4.83412 8.835 4.29512 8.989 3.60579 8.989C2.82112 8.989 2.21612 8.78367 1.79079 8.373C1.36546 7.96233 1.12712 7.44533 1.07579 6.822H2.23079ZM3.62779 4.952C4.06779 4.952 4.41246 4.81633 4.66179 4.545C4.91846 4.26633 5.04679 3.89967 5.04679 3.445C5.04679 2.939 4.91112 2.54667 4.63979 2.268C4.37579 1.982 4.01279 1.839 3.55079 1.839C3.08879 1.839 2.72212 1.98567 2.45079 2.279C2.18679 2.565 2.05479 2.94267 2.05479 3.412C2.05479 3.85933 2.18312 4.22967 2.43979 4.523C2.70379 4.809 3.09979 4.952 3.62779 4.952Z" fill="black"/>
</svg>
