<svg width="6" height="9" viewBox="0 0 6 9" fill="none" xmlns="http://www.w3.org/2000/svg">
<path d="M5.31731 2.059H1.6323V4.248C1.7863 4.04267 2.01364 3.87033 2.3143 3.731C2.6223 3.59167 2.94864 3.522 3.2933 3.522C3.9093 3.522 4.40797 3.654 4.7893 3.918C5.17797 4.182 5.45297 4.51567 5.61431 4.919C5.78297 5.32233 5.86731 5.74767 5.86731 6.195C5.86731 6.73767 5.76097 7.22167 5.5483 7.647C5.34297 8.065 5.0313 8.395 4.6133 8.637C4.20264 8.879 3.69664 9 3.0953 9C2.29597 9 1.6543 8.802 1.1703 8.406C0.686305 8.01 0.396638 7.48567 0.301305 6.833H1.5223C1.60297 7.17767 1.78264 7.45267 2.0613 7.658C2.33997 7.856 2.6883 7.955 3.1063 7.955C3.62697 7.955 4.01564 7.79733 4.27231 7.482C4.5363 7.16667 4.6683 6.74867 4.6683 6.228C4.6683 5.7 4.5363 5.29667 4.27231 5.018C4.0083 4.732 3.61964 4.589 3.1063 4.589C2.74697 4.589 2.44264 4.68067 2.1933 4.864C1.9513 5.04 1.7753 5.282 1.6653 5.59H0.477305V0.959H5.31731V2.059Z" fill="black"/>
</svg>
