<svg width="7" height="9" viewBox="0 0 7 9" fill="none" xmlns="http://www.w3.org/2000/svg">
<path d="M1.67868 7.295C2.38268 6.68633 2.93635 6.18767 3.33968 5.799C3.75035 5.403 4.09135 4.99233 4.36268 4.567C4.63402 4.14167 4.76968 3.71633 4.76968 3.291C4.76968 2.851 4.66335 2.50633 4.45068 2.257C4.24535 2.00767 3.91902 1.883 3.47168 1.883C3.03902 1.883 2.70168 2.02233 2.45968 2.301C2.22502 2.57233 2.10035 2.939 2.08568 3.401H0.875684C0.897684 2.565 1.14702 1.927 1.62368 1.487C2.10768 1.03967 2.72002 0.816 3.46068 0.816C4.26002 0.816 4.88335 1.036 5.33068 1.476C5.78535 1.916 6.01268 2.50267 6.01268 3.236C6.01268 3.764 5.87702 4.27367 5.60568 4.765C5.34168 5.249 5.02268 5.68533 4.64868 6.074C4.28202 6.45533 3.81268 6.899 3.24068 7.405L2.74568 7.845H6.23268V8.89H0.886684V7.977L1.67868 7.295Z" fill="black"/>
</svg>
