<svg width="7" height="10" viewBox="0 0 7 10" fill="none" xmlns="http://www.w3.org/2000/svg">
<path d="M0.872375 2.961C0.916375 2.279 1.17671 1.74733 1.65338 1.366C2.13738 0.984666 2.75338 0.793999 3.50138 0.793999C4.01471 0.793999 4.45838 0.885666 4.83238 1.069C5.20638 1.25233 5.48871 1.50167 5.67938 1.817C5.87004 2.13233 5.96538 2.488 5.96538 2.884C5.96538 3.33867 5.84438 3.72733 5.60238 4.05C5.36038 4.37267 5.07071 4.589 4.73338 4.699V4.743C5.16604 4.875 5.50338 5.117 5.74538 5.469C5.98738 5.81367 6.10838 6.25733 6.10838 6.8C6.10838 7.23267 6.00938 7.61767 5.81138 7.955C5.61338 8.29233 5.32004 8.56 4.93138 8.758C4.54271 8.94867 4.07704 9.044 3.53438 9.044C2.74238 9.044 2.08971 8.84233 1.57638 8.439C1.07038 8.02833 0.799042 7.44167 0.762375 6.679H1.97238C2.00171 7.06767 2.15204 7.38667 2.42338 7.636C2.69471 7.878 3.06138 7.999 3.52338 7.999C3.97071 7.999 4.31538 7.878 4.55738 7.636C4.79938 7.38667 4.92038 7.06767 4.92038 6.679C4.92038 6.16567 4.75538 5.80267 4.42538 5.59C4.10271 5.37 3.60404 5.26 2.92938 5.26H2.64338V4.226H2.94038C3.53438 4.21867 3.98538 4.11967 4.29338 3.929C4.60871 3.73833 4.76638 3.43767 4.76638 3.027C4.76638 2.675 4.65271 2.39633 4.42538 2.191C4.19804 1.97833 3.87538 1.872 3.45738 1.872C3.04671 1.872 2.72771 1.97833 2.50038 2.191C2.27304 2.39633 2.13738 2.653 2.09338 2.961H0.872375Z" fill="black"/>
</svg>
